<?xml version="1.0" encoding="UTF-8"?>
<svg xmlns="http://www.w3.org/2000/svg" version="1.1" viewBox="0 0 2555.64 2097.98">
  <defs>
    <style>
      .cls-1 {
        fill: #fff;
      }
    </style>
  </defs>
  <!-- Generator: Adobe Illustrator 29.1.0, SVG Export Plug-In . SVG Version: 1.2.0 Build 2)  -->
  <g>
    <g id="Camada_1">
      <g>
        <path class="cls-1" d="M529.26,1561.35c11.15,0,20.43,2.13,27.83,6.37,7.39,4.25,13.28,9.89,17.64,16.93,4.37,7.05,7.46,15.11,9.28,24.22s2.73,18.39,2.73,27.86v31.74c0,9.49-1.04,18.61-3.1,27.37-2.06,8.76-5.4,16.42-10.01,22.99-4.61,6.57-10.62,11.8-18.02,15.69-7.41,3.9-16.45,5.84-27.12,5.84h-164.19c-1.7,0-3.88-.67-6.55-2.01-2.67-1.33-4-4.8-4-10.4v-29.19c0-5.59,1.33-9.06,4-10.4,2.67-1.33,4.85-2,6.55-2h155.3c5.6,0,9.19-2.11,10.77-6.34,1.58-4.22,2.37-8.75,2.37-13.58v-31.15c0-4.35-.43-7.84-1.28-10.51-.86-2.65-1.89-4.71-3.1-6.16-1.22-1.45-2.56-2.36-4.02-2.72-1.46-.36-2.92-.54-4.38-.54h-109.53c-7.55,0-15.28-.96-23.18-2.9-7.91-1.93-14.67-6.64-20.26-14.13-4.63-6.27-8.16-14.36-10.59-24.27-2.44-9.9-3.65-21.13-3.65-33.69v-28.13c0-9.49,1.03-18.61,3.1-27.37,2.07-8.76,5.41-16.42,10.04-22.99,4.62-6.57,10.65-11.79,18.07-15.69,7.42-3.89,16.49-5.84,27.2-5.84h157.36c1.46,0,3.53.67,6.21,2,2.68,1.34,4.02,4.81,4.02,10.4v29.19c0,5.6-1.34,9.06-4.02,10.4-2.68,1.34-4.75,2-6.21,2h-148.04c-3.16,0-5.4.49-6.73,1.46-1.34.97-2.36,2.06-3.09,3.28-1.94,3.88-2.91,8.98-2.91,15.3v26.95c0,4.37.36,7.89,1.09,10.56.73,2.68,1.69,4.73,2.91,6.19,1.21,1.46,2.54,2.37,4,2.73,1.45.36,2.91.55,4.37.55h109.15Z"/>
        <path class="cls-1" d="M780.3,1440.35c13.85,0,25.26,2.31,34.25,6.92,8.98,4.62,16.09,10.93,21.32,18.95,5.22,8.02,8.87,17.37,10.93,28.06,2.06,10.69,3.1,22.11,3.1,34.26s-1.04,23.56-3.1,34.25c-2.07,10.69-5.71,19.99-10.93,27.88-5.23,7.9-12.33,14.15-21.32,18.77-8.99,4.62-20.41,6.92-34.25,6.92l-124.55.37v111.84c0,5.61-1.34,9.14-4.02,10.6-2.68,1.46-4.74,2.2-6.2,2.2h-33.57c-1.46,0-3.53-.73-6.2-2.2-2.68-1.46-4.01-4.99-4.01-10.6v-152.73c0-5.62,1.34-9.11,4.04-10.46,2.69-1.34,4.77-2.02,6.24-2.02h160.02c5.62,0,10.09-.92,13.4-2.75,3.3-1.84,5.81-4.34,7.52-7.53,1.71-3.18,2.87-6.85,3.49-11.01.61-4.16.92-8.56.92-13.21s-.31-9.05-.92-13.22c-.61-4.16-1.78-7.83-3.49-11.01-1.72-3.18-4.22-5.69-7.52-7.53-3.3-1.83-7.77-2.75-13.4-2.75h-160.02c-1.47,0-3.55-.67-6.24-2.02-2.69-1.34-4.04-4.83-4.04-10.46v-28.77c0-5.83,1.33-9.41,4.01-10.75,2.67-1.33,4.74-2,6.2-2h168.35ZM849.74,1529.58v-2.18,2.18Z"/>
        <path class="cls-1" d="M1132.74,1554.54v72.24c0,17.51-1.22,33.33-3.65,47.43-2.43,14.11-6.93,26.15-13.5,36.12-6.57,9.98-15.69,17.64-27.37,22.99-11.68,5.35-26.89,8.03-45.62,8.03h-89.06c-19.47,0-35.1-2.98-46.9-8.94-11.8-5.96-20.87-14.1-27.19-24.45-6.33-10.33-10.53-22.44-12.59-36.3-2.07-13.86-3.1-28.82-3.1-44.88v-72.24c0-17.27,1.21-32.9,3.65-46.88,2.43-13.98,6.93-25.96,13.5-35.94,6.57-9.97,15.69-17.69,27.37-23.17s26.76-8.21,45.26-8.21h89.06c18.49,0,33.58,2.73,45.26,8.21,11.68,5.47,20.86,13.2,27.56,23.17,6.69,9.98,11.25,21.95,13.69,35.94,2.43,13.99,3.65,29.62,3.65,46.88ZM1078.74,1548.16c0-3.15-.06-6.66-.18-10.54-.12-3.88-.43-7.82-.91-11.82-.49-4-1.27-7.82-2.36-11.45-1.09-3.64-2.61-6.79-4.55-9.45-2.43-3.39-6.06-6.06-10.91-8-2.43-.73-5.15-1.33-8.18-1.82-3.03-.48-6.49-.73-10.36-.73h-85.09c-3.88,0-7.34.24-10.36.73-3.03.49-5.76,1.09-8.18,1.82-5.82,2.18-9.82,5.4-12,9.63-2.18,4.25-3.88,9.15-5.09,14.73-.49,3.64-.91,7.7-1.27,12.18-.36,4.49-.54,9.4-.54,14.73v84.73c0,5.34.18,10.24.54,14.72.36,4.49.79,8.54,1.27,12.18.73,3.4,1.57,6.42,2.55,9.09.97,2.67,2.18,4.97,3.64,6.91,2.42,3.88,6.06,6.55,10.91,8,4.36,1.7,10.55,2.55,18.55,2.55h85.09c8,0,14.18-.85,18.54-2.55,4.85-1.45,8.49-4.12,10.91-8,1.94-2.42,3.45-5.46,4.55-9.09,1.09-3.64,1.87-7.45,2.36-11.45.48-4,.78-8,.91-12,.12-4,.18-7.45.18-10.36v-84.73Z"/>
        <path class="cls-1" d="M1399.19,1440.35c1.7,0,3.88.67,6.55,2,2.67,1.34,4,4.81,4,10.4v28.46c0,2.92-.43,5.29-1.27,7.11-.85,1.83-1.82,3.17-2.91,4.02-1.09.86-2.25,1.4-3.46,1.64-1.21.24-2.18.37-2.91.37h-93.45v233.63c0,5.58-1.28,9.04-3.83,10.37-2.55,1.34-4.69,2-6.38,2h-33.57c-1.46,0-3.53-.67-6.2-2-2.68-1.33-4.01-4.78-4.01-10.37v-233.63h-93.45c-.73,0-1.7-.12-2.91-.37-1.22-.24-2.37-.78-3.46-1.64-1.09-.85-2.06-2.19-2.91-4.02-.85-1.82-1.27-4.2-1.27-7.11v-28.46c0-5.59,1.33-9.06,4-10.4,2.67-1.33,4.85-2,6.55-2h240.89Z"/>
        <path class="cls-1" d="M1676.19,1440.35c1.69,0,3.88.67,6.55,2,2.67,1.34,4,4.81,4,10.4v28.46c0,2.92-.43,5.29-1.27,7.11-.85,1.83-1.82,3.17-2.91,4.02-1.09.86-2.24,1.4-3.46,1.64-1.22.24-2.19.37-2.91.37h-93.45v233.63c0,5.58-1.28,9.04-3.83,10.37-2.55,1.34-4.69,2-6.39,2h-33.57c-1.46,0-3.53-.67-6.2-2-2.68-1.33-4.01-4.78-4.01-10.37v-233.63h-93.45c-.73,0-1.7-.12-2.91-.37-1.22-.24-2.36-.78-3.46-1.64-1.09-.85-2.07-2.19-2.91-4.02-.85-1.82-1.27-4.2-1.27-7.11v-28.46c0-5.59,1.33-9.06,4-10.4,2.67-1.33,4.85-2,6.55-2h240.9Z"/>
        <path class="cls-1" d="M1920.52,1439.35c1.46,0,3.53.73,6.21,2.18,2.67,1.45,4.02,4.95,4.02,10.51v28.63c0,5.56-1.34,9.06-4.02,10.51-2.68,1.45-4.75,2.17-6.21,2.17l-209.92-.36c-1.46,0-3.47-.66-6.02-1.99-2.56-1.33-3.84-4.77-3.84-10.33v-28.27c0-5.8,1.28-9.42,3.84-10.87,2.55-1.45,4.56-2.18,6.02-2.18h209.92ZM1920.16,1675.35c1.7,0,3.89.67,6.57,2.01,2.67,1.34,4.02,4.81,4.02,10.41v40.17c0,5.6-1.34,9.07-4.02,10.41-2.68,1.34-4.87,2.01-6.57,2.01h-129.6c-18.25,0-33.1-2.61-44.54-7.85-11.44-5.23-20.44-12.53-27.02-21.91-6.57-9.37-11.13-20.57-13.69-33.6-2.55-13.02-4.08-27.2-4.56-42.54v-1.2l.73-46.29c1.46-6.86,4.93-12.55,10.4-17.09,5.47-4.52,11.61-7.04,18.42-7.53l188.23-.37c1.46,0,3.52.68,6.2,2.02,2.68,1.35,4.02,4.84,4.02,10.47v29.02c0,5.64-1.34,9.18-4.02,10.65-2.68,1.47-4.74,2.2-6.2,2.2h-163.78v3.61c.94,1.22.82,2.62,1,4.19v4.92c-.43,3.89-.54,8.27-.54,13.12,0,.73.12,1.22.54,1.45v3.28c.55,6.8,2.74,12.75,6.38,17.86,2.91,3.64,6.56,6.32,10.93,8.02,2.67.73,5.52,1.34,8.56,1.82,3.03.49,10.38.73,10.38.73h128.16Z"/>
        <path class="cls-1" d="M2137.02,1615.25c1.45,2.18,4,6.37,7.63,12.55,3.64,6.18,7.87,13.33,12.73,21.45,4.85,8.12,9.88,16.67,15.09,25.63,5.21,8.97,10.05,17.34,14.55,25.09,4.48,7.76,8.12,14.49,10.91,20.18,2.78,5.7,4.18,9.15,4.18,10.36,0,2.67-.67,4.97-2,6.91-1.34,1.94-3.46,2.91-6.37,2.91h-39.29c-2.92,0-5.23-.55-6.93-1.64-1.7-1.09-3.28-2.97-4.74-5.63l-66.04-116.73h-76.99v111.27c0,3.4-.79,6.36-2.37,8.91-1.59,2.54-4.2,3.82-7.84,3.82h-33.2c-3.65,0-6.33-1.27-8.03-3.82-1.71-2.55-2.55-5.51-2.55-8.91v-151.8c0-3.42.85-6.36,2.57-8.81,1.71-2.44,4.4-3.67,8.07-3.67h159.65c5.63,0,10.09-.92,13.4-2.75,3.3-1.84,5.81-4.34,7.52-7.53,1.71-3.18,2.87-6.85,3.49-11.01.61-4.16.92-8.56.92-13.21s-.31-9.05-.92-13.22c-.61-4.16-1.78-7.83-3.49-11.01-1.72-3.18-4.22-5.69-7.52-7.53-3.31-1.83-7.77-2.75-13.4-2.75h-159.65c-3.67,0-6.37-1.22-8.07-3.67-1.72-2.44-2.57-5.38-2.57-8.81v-28.8c0-3.39.78-6.36,2.36-8.91,1.58-2.54,4.3-3.82,8.18-3.82h167.64c13.82,0,25.21,2.31,34.18,6.91,8.97,4.61,16.06,10.91,21.27,18.91,5.21,8,8.91,17.34,11.09,28,2.18,10.67,3.27,22.06,3.27,34.18,0,10.18-.79,20.12-2.36,29.82-1.58,9.7-4.49,18.55-8.73,26.54-4.24,8-10.06,14.73-17.45,20.18-7.4,5.46-16.79,8.91-28.18,10.36Z"/>
      </g>
      <path class="cls-1" d="M1277.82,412.85c118.48,0,220.29,34.57,264.73,84.01,15.34,17.06,23.9,6.62,23.84-.12-.64-80.15-129.2-139.7-288.58-139.7s-288.57,59.55-288.58,139.7c0,10.26,8.34,17.55,23.4.62,44.21-49.7,146.3-84.5,265.17-84.5Z"/>
      <path class="cls-1" d="M1562.18,581.87c-1.41,0-3.22,1.39-5.42,5.55-31.86,60.21-144.7,104.72-279.01,104.72s-246.97-44.44-278.93-104.58c-2.18-4.11-3.99-5.49-5.4-5.49-2.41,0-3.67.34-3.67,5.49v21.46s0,238.34,0,321.27c0,21.54,12.31,40.28,46.24,58.44,46.43,24.85,131.17,51.14,204.76,54.8v206.65c-82.66-5.36-148.67-28-187-56.04v-129.77c-16.65-6.64-49.07-17.89-64-38.79v164.68c0,77.14,129.17,139.67,288.51,139.67s288.49-62.35,288.49-139.33c0-81.3.02-305.19.02-305.19-.23.17-63.71,83.3-252.02,97.01v-202.91c67.17-4.03,129.35-22.81,188-47.29,0,21.08.3,129.77.3,129.77,40.13-22.66,57.79-29.83,62.7-66.44,0,0,0-202.59,0-208.38,0-4.9-1.22-5.28-3.57-5.28ZM1240.74,982.28c-82.66-5.36-148.67-28-187-56.04v-193.71c38.48,21.67,125.53,46,187,46.88v202.87ZM1502.74,997.52v196.37c-38.31,28.3-104.73,51.2-188,56.59v-207.84c73.11-4.16,137.79-20.31,188-45.12Z"/>
      <path class="cls-1" d="M1277.82,445.33c-55.93,0-101.43,45.5-101.43,101.43s45.5,101.43,101.43,101.43,101.43-45.5,101.43-101.43-45.5-101.43-101.43-101.43ZM1298.88,484.58c6.45-.87,11.29,3.06,13.56,8.8,7.38-17.94,30.11-6.21,22.22,11.84-3.46,7.91-16.75,17.03-22.22,26.64-4.99-8.35-16.83-17.86-20.55-23.54-7.42-11.31-1.15-22.65,6.99-23.74Z"/>
      <path class="cls-1" d="M1416.91,1535.06c13.07,19.55,26.52,39.01,43.54,55.38-16.68,16.83-30.6,35.94-43.54,55.75-11.51-20.51-26.67-38.52-42.53-55.75,16.24-16.72,30.91-35.09,42.53-55.38Z"/>
      <path class="cls-1" d="M1409.03,1050.31c18.41,27.53,37.34,54.93,61.32,77.98-23.49,23.7-43.09,50.62-61.32,78.51-16.21-28.88-37.56-54.25-59.89-78.51,22.87-23.54,43.52-49.42,59.89-77.98Z"/>
      <path class="cls-1" d="M998.32,1535.06c-30.64,0-55.56,24.92-55.56,55.56s24.92,55.56,55.56,55.56,55.56-24.92,55.56-55.56-24.92-55.56-55.56-55.56ZM1009.85,1556.56c3.53-.48,6.19,1.67,7.43,4.82,4.05-9.83,16.49-3.4,12.17,6.49-1.89,4.33-9.18,9.33-12.17,14.59-2.73-4.58-9.22-9.78-11.26-12.89-4.07-6.2-.63-12.41,3.83-13.01Z"/>
    </g>
  </g>
</svg>